<?xml version="1.0" encoding="utf-8"?>
<!-- Generator: Adobe Illustrator 26.0.1, SVG Export Plug-In . SVG Version: 6.00 Build 0)  -->
<svg version="1.1" id="Слой_1" xmlns="http://www.w3.org/2000/svg" xmlns:xlink="http://www.w3.org/1999/xlink" x="0px" y="0px"
	 viewBox="0 0 500 500" style="enable-background:new 0 0 500 500;" xml:space="preserve">
<style type="text/css">
	.st0{fill:#D01120;}
</style>
<g>
	<path class="st0" d="M0,263.3c0-8.9,0-17.7,0-26.6c0.3-1.8,0.6-3.5,0.9-5.3c1.4-10.3,2.2-20.7,4.3-30.9
		c12.1-58.7,41.5-107,88-144.8C128,27.3,167.8,9.7,212.4,3.1c8.3-1.3,16.8-2,25.1-3.1c8.3,0,16.7,0,25,0c2.2,0.3,4.4,0.6,6.5,0.9
		c7.4,0.9,14.8,1.4,22.1,2.6C347.4,13.3,395.2,39,433.9,81c34.4,37.3,55.4,81.2,63,131.4c1.3,8.3,2,16.8,3.1,25.1c0,8.3,0,16.7,0,25
		c-0.3,2-0.6,4.1-0.8,6.1c-0.9,7.4-1.4,14.8-2.6,22.1c-9.7,56.6-35.5,104.6-77.8,143.5c-37.2,34.2-81.1,55.1-131.1,62.8
		c-8.3,1.3-16.8,2-25.1,3c-8.3,0-16.7,0-25,0c-2.3-0.3-4.6-0.6-6.9-0.9c-8.8-1.1-17.6-1.8-26.3-3.4c-54.6-10.4-100.9-36-138.5-76.9
		C31.6,381.5,10.7,337.6,3,287.6C1.8,279.5,1,271.4,0,263.3z M250,490.8c132.6,0.1,240.6-107.4,240.8-239.9
		C491,117.9,383.8,9.4,251.9,9.2C117,9,9.4,115.8,9.2,250.2C9,383,116.8,490.7,250,490.8z"/>
	<path d="M357.2,407.3c-4.2,0-7.9,0-11.6,0c-10.7,0-21.4-0.2-32,0.1c-3.5,0.1-5.1-1.1-6.3-4.2c-2.2-5.7-4.9-11.2-7.2-16.9
		c-1-2.6-2.4-3.7-5.4-3.7c-29.2,0.1-58.3,0.1-87.5,0c-2.6,0-3.9,0.7-4.9,3.2c-2.5,6.4-5.3,12.8-8.1,19c-0.5,1-1.9,2.4-2.9,2.4
		c-15.2,0.1-30.5,0-45.7,0c-0.2,0-0.4-0.3-0.9-0.6c3.8-8.6,7.6-17.3,11.4-25.9c20.3-46.2,40.7-92.4,60.9-138.6
		c1.2-2.7,2.6-3.6,5.5-3.6c19.5,0.1,39.1,0.1,58.6,0c2.5,0,3.9,0.5,5,3c23.2,54,46.4,108,69.7,162.1
		C356.2,404.7,356.6,405.7,357.2,407.3z M280.4,343.5c-0.2-0.9-0.2-1.3-0.4-1.6c-8-20.2-16.2-40.3-24.1-60.5c-1-2.5-2.5-2.8-4.8-2.8
		c-2.3,0-3.8,0.3-4.8,2.8c-8.1,19.7-16.4,39.4-24.6,59c-0.4,0.9-0.6,1.9-0.9,3.1C240.9,343.5,260.5,343.5,280.4,343.5z"/>
	<path class="st0" d="M266.4,188.5c-11.1,0-17.7-11.6-12-21.5c8.4-14.7,16.8-29.3,25.6-43.8c12.5-20.8,25.3-41.5,38-62.3
		c3.3-5.4,8-8.2,14.4-7.3c10.4,1.5,15.4,12.5,9.8,21.7c-15,24.7-30.1,49.3-45,74c-6.2,10.2-12,20.7-18,31
		C276.1,185.9,271.9,188.5,266.4,188.5z"/>
</g>
</svg>
